<svg xmlns="http://www.w3.org/2000/svg" viewBox="0 0 20 18" xmlns:xlink="http://www.w3.org/1999/xlink">
  <path d="M13.518 1.338a8.821 8.821 0 0 1 3.278 3.27A8.841 8.841 0 0 1 18 9.124a8.841 8.841 0 0 1-1.204 4.518 8.888 8.888 0 0 1-3.278 3.278A8.841 8.841 0 0 1 9 18.125a8.841 8.841 0 0 1-4.518-1.204 8.888 8.888 0 0 1-3.278-3.278A8.841 8.841 0 0 1 0 9.125C0 7.496.401 5.99 1.204 4.607A8.888 8.888 0 0 1 4.482 1.33 8.841 8.841 0 0 1 9 .125c1.629 0 3.135.404 4.518 1.213zM9 17.018a7.698 7.698 0 0 0 3.059-.624 7.837 7.837 0 0 0 2.513-1.688 8.017 8.017 0 0 0 1.679-2.522 7.698 7.698 0 0 0 .624-3.059 7.698 7.698 0 0 0-.624-3.059 7.911 7.911 0 0 0-1.679-2.513 7.911 7.911 0 0 0-2.513-1.679A7.698 7.698 0 0 0 9 1.25a7.698 7.698 0 0 0-3.059.624 7.911 7.911 0 0 0-2.513 1.679 7.911 7.911 0 0 0-1.679 2.513 7.698 7.698 0 0 0-.624 3.059c0 .855.132 1.685.396 2.487a7.417 7.417 0 0 0 1.125 2.171 8.822 8.822 0 0 0 1.696 1.705 7.3 7.3 0 0 0 2.17 1.134A7.92 7.92 0 0 0 9 17.018zm3.34-10.67a.526.526 0 0 1-.158.386L9.79 9.125l2.39 2.39c.071.07.12.153.15.247a.49.49 0 0 1 0 .29c-.03.1-.079.184-.15.255a.537.537 0 0 1-.395.158.537.537 0 0 1-.395-.158L9 9.916l-2.39 2.39a.537.537 0 0 1-.396.159.537.537 0 0 1-.396-.158.589.589 0 0 1-.15-.255.49.49 0 0 1 0-.29.594.594 0 0 1 .15-.246L8.21 9.125l-2.39-2.39a.537.537 0 0 1-.159-.396.537.537 0 0 1 .554-.554c.158 0 .29.053.395.158L9 8.334l2.39-2.39a.537.537 0 0 1 .396-.159c.158 0 .29.053.396.158.105.106.158.24.158.405z" fill="#ff4f5e" fill-rule="evenodd" />
</svg>

