<svg xmlns="http://www.w3.org/2000/svg" viewBox="0 0 500 500"><g transform="matrix(1.20929 0 0 1.20929 -52.402 -52.35)"><radialGradient gradientUnits="userSpaceOnUse" gradientTransform="translate(1258.441 532.89)" r=".001" cy="-390.199" cx="-1170.989" id="a"><stop offset="0" stop-color="#fff44f"/><stop offset=".295" stop-color="#ff980e"/><stop offset=".431" stop-color="#ff5d36"/><stop offset=".53" stop-color="#ff3750"/><stop offset=".749" stop-color="#f5156c"/><stop offset=".765" stop-color="#f1136e"/><stop offset=".88" stop-color="#da057a"/><stop offset=".953" stop-color="#d2007f"/></radialGradient><radialGradient gradientUnits="userSpaceOnUse" gradientTransform="translate(1258.441 532.89)" r="0" cy="-390.199" cx="-1170.989" id="b"><stop offset="0" stop-color="#b5007f"/><stop offset="1" stop-color="#f5156c" stop-opacity="0"/></radialGradient><radialGradient gradientUnits="userSpaceOnUse" gradientTransform="translate(1258.441 532.89)" r=".001" cy="-390.199" cx="-1170.989" id="c"><stop offset="0" stop-color="#fd0" stop-opacity=".6"/><stop offset=".084" stop-color="#ffd801" stop-opacity=".524"/><stop offset=".182" stop-color="#feca05" stop-opacity=".435"/><stop offset=".288" stop-color="#feb20c" stop-opacity=".339"/><stop offset=".4" stop-color="#fd9115" stop-opacity=".239"/><stop offset=".515" stop-color="#fb6621" stop-opacity=".134"/><stop offset=".633" stop-color="#f9332f" stop-opacity=".028"/><stop offset=".664" stop-color="#f92433" stop-opacity="0"/></radialGradient></g><g transform="matrix(1.20929 0 0 1.20929 -52.402 -52.35)"><radialGradient gradientUnits="userSpaceOnUse" r=".001" cy="142.691" cx="87.452" id="d"><stop offset=".153" stop-color="#960e18"/><stop offset=".206" stop-color="#cc2335" stop-opacity=".554"/><stop offset=".249" stop-color="#f13148" stop-opacity=".191"/><stop offset=".272" stop-color="#ff3750" stop-opacity="0"/></radialGradient><radialGradient gradientUnits="userSpaceOnUse" r=".001" cy="142.691" cx="87.452" id="e"><stop offset=".113" stop-color="#960e18"/><stop offset=".189" stop-color="#cc2335" stop-opacity=".554"/><stop offset=".252" stop-color="#f13148" stop-opacity=".191"/><stop offset=".284" stop-color="#ff3750" stop-opacity="0"/></radialGradient></g><g transform="matrix(1.20929 0 0 1.20929 -52.402 -52.35)"><radialGradient gradientUnits="userSpaceOnUse" gradientTransform="translate(1258.441 532.89)" r="467.083" cy="-409.482" cx="-845.483" id="f"><stop offset="0" stop-color="#fff44f"/><stop offset=".295" stop-color="#ff980e"/><stop offset=".431" stop-color="#ff5d36"/><stop offset=".53" stop-color="#ff3750"/><stop offset=".749" stop-color="#f5156c"/><stop offset=".765" stop-color="#f1136e"/><stop offset=".88" stop-color="#da057a"/><stop offset=".953" stop-color="#d2007f"/></radialGradient><path d="M415.1 124.7c-15.9-20.9-35.4-38.1-57.3-51.2-1-.6-2.3-.4-3.2.4-1.2 1.2-.9 3.1.4 4 40.6 26.3 71.9 68.7 79.2 125.3 15 115-65.3 211-178.3 211.3-124.2.4-199.8-109.4-180-208 1-4.9.5-9.7 2.1-14.4.9-17.3 7.5-44.5 21.7-72.3-14.3 7.4-32.5 30.8-41.5 52.4-13 31.2-17.5 68.5-13.4 104 .3 2.7.6 5.3.9 8 16.7 97.8 101.9 172.2 204.4 172 114.2-.2 207.2-93.9 206.6-208.2-.2-46.2-15.7-88.9-41.6-123.3z" fill="url(#f)"/><radialGradient gradientUnits="userSpaceOnUse" gradientTransform="translate(1258.441 532.89)" r="269.769" cy="-369.159" cx="-1180.906" id="g"><stop offset="0" stop-color="#b5007f"/><stop offset="1" stop-color="#f5156c" stop-opacity="0"/></radialGradient><path d="M415.1 124.7c-15.9-20.9-35.4-38.1-57.3-51.2-1-.6-2.3-.4-3.2.4-1.2 1.2-.9 3.1.4 4 40.6 26.3 71.9 68.7 79.2 125.3 15 115-65.3 211-178.3 211.3-124.2.4-199.8-109.4-180-208 1-4.9.5-9.7 2.1-14.4.9-17.3 7.5-44.5 21.7-72.3-14.3 7.4-32.5 30.8-41.5 52.4-13 31.2-17.5 68.5-13.4 104 .3 2.7.6 5.3.9 8 16.7 97.8 101.9 172.2 204.4 172 114.2-.2 207.2-93.9 206.6-208.2-.2-46.2-15.7-88.9-41.6-123.3z" opacity=".67" fill="url(#g)"/><radialGradient gradientUnits="userSpaceOnUse" gradientTransform="translate(1258.441 532.89)" r="511.699" cy="-411.981" cx="-805.377" id="h"><stop offset="0" stop-color="#fd0" stop-opacity=".6"/><stop offset=".084" stop-color="#ffd801" stop-opacity=".524"/><stop offset=".182" stop-color="#feca05" stop-opacity=".435"/><stop offset=".288" stop-color="#feb20c" stop-opacity=".339"/><stop offset=".4" stop-color="#fd9115" stop-opacity=".239"/><stop offset=".515" stop-color="#fb6621" stop-opacity=".134"/><stop offset=".633" stop-color="#f9332f" stop-opacity=".028"/><stop offset=".664" stop-color="#f92433" stop-opacity="0"/></radialGradient><path d="M415.1 124.7c-15.9-20.9-35.4-38.1-57.3-51.2-1-.6-2.3-.4-3.2.4-1.2 1.2-.9 3.1.4 4 40.6 26.3 71.9 68.7 79.2 125.3 15 115-65.3 211-178.3 211.3-124.2.4-199.8-109.4-180-208 1-4.9.5-9.7 2.1-14.4.9-17.3 7.5-44.5 21.7-72.3-14.3 7.4-32.5 30.8-41.5 52.4-13 31.2-17.5 68.5-13.4 104 .3 2.7.6 5.3.9 8 16.7 97.8 101.9 172.2 204.4 172 114.2-.2 207.2-93.9 206.6-208.2-.2-46.2-15.7-88.9-41.6-123.3z" fill="url(#h)"/></g><g transform="matrix(1.20929 0 0 1.20929 -52.402 -52.35)"><radialGradient gradientUnits="userSpaceOnUse" gradientTransform="translate(1258.441 532.89)" r="687.49" cy="-246.608" cx="-996.633" id="i"><stop offset=".153" stop-color="#960e18"/><stop offset=".206" stop-color="#cc2335" stop-opacity=".554"/><stop offset=".249" stop-color="#f13148" stop-opacity=".191"/><stop offset=".272" stop-color="#ff3750" stop-opacity="0"/></radialGradient><path d="M415.1 124.7c-15.9-20.9-35.4-38.1-57.3-51.2-1-.6-2.3-.4-3.2.4-1.2 1.2-.9 3.1.4 4 40.6 26.3 71.9 68.7 79.2 125.3 15 115-65.3 211-178.3 211.3-124.2.4-199.8-109.4-180-208 1-4.9.5-9.7 2.1-14.4.9-17.3 7.5-44.5 21.7-72.3-14.3 7.4-32.5 30.8-41.5 52.4-13 31.2-17.5 68.5-13.4 104 .3 2.7.6 5.3.9 8 16.7 97.8 101.9 172.2 204.4 172 114.2-.2 207.2-93.9 206.6-208.2-.2-46.2-15.7-88.9-41.6-123.3z" fill="url(#i)"/><radialGradient gradientUnits="userSpaceOnUse" gradientTransform="translate(1258.441 532.89)" r="692.278" cy="-254.909" cx="-1050.416" id="j"><stop offset=".113" stop-color="#960e18"/><stop offset=".189" stop-color="#cc2335" stop-opacity=".554"/><stop offset=".252" stop-color="#f13148" stop-opacity=".191"/><stop offset=".284" stop-color="#ff3750" stop-opacity="0"/></radialGradient><path d="M415.1 124.7c-15.9-20.9-35.4-38.1-57.3-51.2-1-.6-2.3-.4-3.2.4-1.2 1.2-.9 3.1.4 4 40.6 26.3 71.9 68.7 79.2 125.3 15 115-65.3 211-178.3 211.3-124.2.4-199.8-109.4-180-208 1-4.9.5-9.7 2.1-14.4.9-17.3 7.5-44.5 21.7-72.3-14.3 7.4-32.5 30.8-41.5 52.4-13 31.2-17.5 68.5-13.4 104 .3 2.7.6 5.3.9 8 16.7 97.8 101.9 172.2 204.4 172 114.2-.2 207.2-93.9 206.6-208.2-.2-46.2-15.7-88.9-41.6-123.3z" fill="url(#j)"/></g><g transform="matrix(1.20929 0 0 1.20929 -52.402 -52.35)"><radialGradient gradientUnits="userSpaceOnUse" gradientTransform="translate(1310.671 86.11) scale(.9589)" r="453.671" cy="24.787" cx="-946.491" id="k"><stop offset="0" stop-color="#ff980e"/><stop offset=".295" stop-color="#ff7139"/><stop offset=".485" stop-color="#ff5b51"/><stop offset=".626" stop-color="#ff4f5e"/><stop offset=".737" stop-color="#ff4055"/><stop offset=".843" stop-color="#ff3750"/></radialGradient><path d="M439.3 197.5c-6.7-60.2-40.5-101.3-83.7-125.3-7.2-4-16.3-2.3-21.5 4.1l-.1.1c49.2 30.3 80.2 84 81.8 140 1.9 68.1-54 122.4-118.4 125.5-46.8 2.3-90.9-20.3-112.5-65.6-4.8-10.1-8.3-20.3-10.1-32.7-10.2-68.8 36.1-127.5 78.6-142.1-22.9-20-80.4-18.6-123.1 12.8-30.8 22.6-50.8 57-57.4 98-5 31.3-.3 63.8 12.1 92.8 12.6 29.6 33.1 55.7 59 74.9 28 20.9 61.8 33 96.6 35.6 5.1.4 10.3.6 15.4.6 136.7.2 196.1-103.4 183.3-218.7z" fill="url(#k)"/><radialGradient gradientUnits="userSpaceOnUse" gradientTransform="translate(1310.671 86.11) scale(.9589)" r="430.371" cy="41.462" cx="-946.491" id="l"><stop offset=".084" stop-color="#ffde08"/><stop offset=".208" stop-color="#ffd609" stop-opacity=".832"/><stop offset=".403" stop-color="#ffbf0b" stop-opacity=".568"/><stop offset=".644" stop-color="#ff9b0f" stop-opacity=".242"/><stop offset=".822" stop-color="#ff7b12" stop-opacity="0"/></radialGradient><path d="M439.3 197.5c-6.7-60.2-40.5-101.3-83.7-125.3-7.2-4-16.3-2.3-21.5 4.1l-.1.1c49.2 30.3 80.2 84 81.8 140 1.9 68.1-54 122.4-118.4 125.5-46.8 2.3-90.9-20.3-112.5-65.6-4.8-10.1-8.3-20.3-10.1-32.7-10.2-68.8 36.1-127.5 78.6-142.1-22.9-20-80.4-18.6-123.1 12.8-30.8 22.6-50.8 57-57.4 98-5 31.3-.3 63.8 12.1 92.8 12.6 29.6 33.1 55.7 59 74.9 28 20.9 61.8 33 96.6 35.6 5.1.4 10.3.6 15.4.6 136.7.2 196.1-103.4 183.3-218.7z" fill="url(#l)"/></g><g transform="matrix(1.20929 0 0 1.20929 -52.402 -52.35)"><radialGradient gradientUnits="userSpaceOnUse" gradientTransform="matrix(.2371 .9291 -.9696 .2474 720.785 1188.733)" r="216.63" cy="175.21" cx="-1052.595" id="m"><stop offset=".363" stop-color="#ff3750"/><stop offset=".411" stop-color="#ff444b" stop-opacity=".789"/><stop offset=".59" stop-color="#ff7139" stop-opacity="0"/></radialGradient><path d="M439.3 197.5c-6.7-60.2-40.5-101.3-83.7-125.3-7.2-4-16.3-2.3-21.5 4.1l-.1.1c49.2 30.3 80.2 84 81.8 140 1.9 68.1-54 122.4-118.4 125.5-46.8 2.3-90.9-20.3-112.5-65.6-4.8-10.1-8.3-20.3-10.1-32.7-10.2-68.8 36.1-127.5 78.6-142.1-22.9-20-80.4-18.6-123.1 12.8-30.8 22.6-50.8 57-57.4 98-5 31.3-.3 63.8 12.1 92.8 12.6 29.6 33.1 55.7 59 74.9 28 20.9 61.8 33 96.6 35.6 5.1.4 10.3.6 15.4.6 136.7.2 196.1-103.4 183.3-218.7z" opacity=".53" fill="url(#m)"/><radialGradient gradientUnits="userSpaceOnUse" gradientTransform="matrix(.2371 .9291 -.9299 .2373 702.412 1239.464)" r="219.105" cy="193.066" cx="-1091.419" id="n"><stop offset=".216" stop-color="#ff3750" stop-opacity=".8"/><stop offset=".27" stop-color="#ff444b" stop-opacity=".632"/><stop offset=".474" stop-color="#ff7139" stop-opacity="0"/></radialGradient><path d="M439.3 197.5c-6.7-60.2-40.5-101.3-83.7-125.3-7.2-4-16.3-2.3-21.5 4.1l-.1.1c49.2 30.3 80.2 84 81.8 140 1.9 68.1-54 122.4-118.4 125.5-46.8 2.3-90.9-20.3-112.5-65.6-4.8-10.1-8.3-20.3-10.1-32.7-10.2-68.8 36.1-127.5 78.6-142.1-22.9-20-80.4-18.6-123.1 12.8-30.8 22.6-50.8 57-57.4 98-5 31.3-.3 63.8 12.1 92.8 12.6 29.6 33.1 55.7 59 74.9 28 20.9 61.8 33 96.6 35.6 5.1.4 10.3.6 15.4.6 136.7.2 196.1-103.4 183.3-218.7z" opacity=".53" fill="url(#n)"/></g><g transform="matrix(1.20929 0 0 1.20929 -52.402 -52.35)"><radialGradient gradientUnits="userSpaceOnUse" gradientTransform="translate(1310.671 86.11) scale(.9589)" r="767.539" cy="-27.569" cx="-854.69" id="o"><stop offset=".054" stop-color="#fff44f"/><stop offset=".457" stop-color="#ff980e"/><stop offset=".521" stop-color="#ff8424"/><stop offset=".587" stop-color="#ff7634"/><stop offset=".639" stop-color="#ff7139"/></radialGradient><path d="M334.3 76.1c-.1.1-.1.2-.2.3-5.9 7.3-4.7 17.9 2.5 23.9 31 25.4 51.8 61.5 51.8 103.2 0 57.6-44.6 101.5-96.8 98.4-77.6-4.7-97.1-84-56.8-118.3-10.9-2.3-31.3 2.2-45.6 23.5-12.8 19.1-12.1 48.5-4.2 69.4 21.6 45.2 65.7 68.4 112.5 65.6 88.4-5.4 126.2-78.3 128.6-130.2 2.6-56.3-10.1-106.2-70.3-139.8-7.3-4.1-16.3-2.4-21.5 4z" fill="url(#o)"/></g><g transform="matrix(1.20929 0 0 1.20929 -52.402 -52.35)"><linearGradient y2="445.625" x2="137.295" y1="80.15" x1="348.303" gradientUnits="userSpaceOnUse" id="p"><stop offset="0" stop-color="#fff44f" stop-opacity=".8"/><stop offset=".75" stop-color="#fff44f" stop-opacity="0"/></linearGradient><path d="M415.1 124.7c-5.5-7.3-11.6-14.1-18-20.5-5.1-5.4-10.6-10.4-16.4-15.1 3.3 2.9 6.5 6 9.6 9.2 11.2 12.1 20.1 26.4 25.2 42 10.8 32.6 10.1 73.5-10.5 105.5-24.6 38.2-64.6 57.1-107.8 56.2-1.9 0-3.7 0-5.6-.1-77.6-4.7-97.1-84-56.8-118.3-10.9-2.3-31.3 2.2-45.6 23.5-12.8 19.1-12.1 48.5-4.2 69.4-4.8-10.1-8.3-20.3-10.1-32.7-10.2-68.8 36.1-127.5 78.6-142.1-22.9-20-80.4-18.6-123.1 12.8-24.9 18.3-42.7 44.3-52.1 75.3 1.4-17.4 8-43.3 21.5-69.9-14.3 7.4-32.5 30.8-41.5 52.4-13 31.2-17.5 68.5-13.4 104 .3 2.7.6 5.3.9 8 16.6 97.6 101.7 172 204 172 114.3 0 207-92.7 207-207-.1-46.8-15.6-89.9-41.7-124.6z" fill="url(#p)"/></g><g transform="matrix(1.20929 0 0 1.20929 -52.402 -52.35)"><linearGradient gradientTransform="translate(1258.441 532.89)" y2="-486.51" x2="-977.317" y1="-229.679" x1="-977.317" gradientUnits="userSpaceOnUse" id="q"><stop offset="0" stop-color="#3a8ee6"/><stop offset=".102" stop-color="#4d82eb"/><stop offset=".389" stop-color="#7d65fa"/><stop offset=".531" stop-color="#9059ff"/><stop offset=".692" stop-color="#9d50f8"/><stop offset=".989" stop-color="#c03ae7"/><stop offset="1" stop-color="#c139e6"/></linearGradient><path d="M415.5 140.3c-5.2-15.6-14-29.9-25.2-42C366.3 72.5 331 56 297 48.5c-28.6-6.3-58.6-6.2-85.6-.5-29.4 6.2-55.2 18.9-71.5 34.7 56.4-33 132.4-26.9 184.4 10.1 8.7 6.2 16.8 13.3 24.1 21.1 34.6 37.3 48.7 99.6 19.6 144.4-14.6 22.7-46 43.9-75.3 43.7 44.9 2.4 86.8-16.6 112.2-56.1 20.7-32.1 21.4-73 10.6-105.6z" fill="url(#q)"/></g><g transform="matrix(1.20929 0 0 1.20929 -52.402 -52.35)"><linearGradient gradientTransform="translate(1258.441 532.89)" y2="-253.158" x2="-882.367" y1="-495.848" x1="-1022.485" gradientUnits="userSpaceOnUse" id="r"><stop offset=".805" stop-color="#9059ff" stop-opacity="0"/><stop offset="1" stop-color="#6e008b" stop-opacity=".5"/></linearGradient><path d="M415.5 140.3c-5.2-15.6-14-29.9-25.2-42C366.3 72.5 331 56 297 48.5c-28.6-6.3-58.6-6.2-85.6-.5-29.4 6.2-55.2 18.9-71.5 34.7 56.4-33 132.4-26.9 184.4 10.1 8.7 6.2 16.8 13.3 24.1 21.1 34.6 37.3 48.7 99.6 19.6 144.4-14.6 22.7-46 43.9-75.3 43.7 44.9 2.4 86.8-16.6 112.2-56.1 20.7-32.1 21.4-73 10.6-105.6z" fill="url(#r)"/></g></svg>