<svg xmlns="http://www.w3.org/2000/svg" viewBox="0 0 437.6 436.563" height="1650" width="1653.921"><defs><radialGradient id="a" cx="321.965" cy="-119.885" r="1876.787" fx="389.093" fy="-153.063" gradientTransform="translate(1258.441 532.89)" gradientUnits="userSpaceOnUse"><stop offset="0" stop-color="#fff44f"/><stop offset=".295" stop-color="#ff980e"/><stop offset=".432" stop-color="#ff5d36"/><stop offset=".53" stop-color="#ff3750"/><stop offset=".749" stop-color="#f5156c"/><stop offset=".765" stop-color="#f1136e"/><stop offset=".88" stop-color="#da057a"/><stop offset=".953" stop-color="#d2007f"/></radialGradient><radialGradient id="b" cx="-1019.816" cy="-42.246" r="1110.733" fx="-980.088" fy="-61.881" gradientTransform="translate(1258.441 532.89)" gradientUnits="userSpaceOnUse"><stop offset="0" stop-color="#b5007f"/><stop offset="1" stop-color="#f5156c" stop-opacity="0"/></radialGradient><radialGradient id="c" cx="482.401" cy="-226.675" r="2203.835" fx="561.226" fy="-265.635" gradientTransform="translate(1258.441 532.89)" gradientUnits="userSpaceOnUse"><stop offset="0" stop-color="#fd0" stop-opacity=".6"/><stop offset=".084" stop-color="#ffd801" stop-opacity=".524"/><stop offset=".182" stop-color="#feca05" stop-opacity=".435"/><stop offset=".288" stop-color="#feb20c" stop-opacity=".339"/><stop offset=".4" stop-color="#fd9115" stop-opacity=".239"/><stop offset=".515" stop-color="#fb6621" stop-opacity=".134"/><stop offset=".633" stop-color="#f9332f" stop-opacity=".028"/><stop offset=".664" stop-color="#f92433" stop-opacity="0"/></radialGradient><radialGradient id="d" cx="975.766" cy="1018.462" r="2843.121" gradientUnits="userSpaceOnUse"><stop offset=".153" stop-color="#960e18"/><stop offset=".206" stop-color="#cc2335" stop-opacity=".554"/><stop offset=".249" stop-color="#f13148" stop-opacity=".191"/><stop offset=".272" stop-color="#ff3750" stop-opacity="0"/></radialGradient><radialGradient id="e" cx="760.619" cy="982.712" r="2843.121" gradientUnits="userSpaceOnUse"><stop offset=".113" stop-color="#960e18"/><stop offset=".189" stop-color="#cc2335" stop-opacity=".554"/><stop offset=".252" stop-color="#f13148" stop-opacity=".191"/><stop offset=".284" stop-color="#ff3750" stop-opacity="0"/></radialGradient><radialGradient id="g" cx="257.633" cy="346.109" r="1837.156" fx="323.343" fy="313.632" gradientTransform="matrix(.95886 0 0 .95886 1293.99 17.724)" gradientUnits="userSpaceOnUse"><stop offset="0" stop-color="#ff980e"/><stop offset=".295" stop-color="#ff7139"/><stop offset=".485" stop-color="#ff5b51"/><stop offset=".626" stop-color="#ff4f5e"/><stop offset=".737" stop-color="#ff4055"/><stop offset=".843" stop-color="#ff3750"/></radialGradient><radialGradient id="h" cx="257.633" cy="346.109" r="1837.156" fx="323.343" fy="313.632" gradientTransform="matrix(.95886 0 0 .95886 1293.99 17.724)" gradientUnits="userSpaceOnUse"><stop offset=".084" stop-color="#ffde08"/><stop offset=".208" stop-color="#ffd609" stop-opacity=".832"/><stop offset=".403" stop-color="#ffbf0b" stop-opacity=".568"/><stop offset=".644" stop-color="#ff9b0f" stop-opacity=".242"/><stop offset=".822" stop-color="#ff7b12" stop-opacity="0"/></radialGradient><radialGradient id="i" cx="1134.043" cy="897.613" r="863.962" gradientTransform="matrix(.24723 .96896 -1.0112 .258 1761.344 -432.815)" gradientUnits="userSpaceOnUse"><stop offset=".363" stop-color="#ff3750"/><stop offset=".411" stop-color="#ff444b" stop-opacity=".789"/><stop offset=".59" stop-color="#ff7139" stop-opacity="0"/></radialGradient><radialGradient id="j" cx="985.124" cy="970.779" r="863.962" gradientTransform="matrix(.24723 .96896 -.9698 .24744 1683.043 -223.978)" gradientUnits="userSpaceOnUse"><stop offset=".216" stop-color="#ff3750" stop-opacity=".8"/><stop offset=".27" stop-color="#ff444b" stop-opacity=".632"/><stop offset=".474" stop-color="#ff7139" stop-opacity="0"/></radialGradient><radialGradient id="k" cx="624.281" cy="138.584" r="3105.129" gradientTransform="matrix(.95886 0 0 .95886 1293.99 17.724)" gradientUnits="userSpaceOnUse"><stop offset=".054" stop-color="#fff44f"/><stop offset=".457" stop-color="#ff980e"/><stop offset=".521" stop-color="#ff8424"/><stop offset=".587" stop-color="#ff7634"/><stop offset=".639" stop-color="#ff7139"/></radialGradient><linearGradient id="f" gradientUnits="userSpaceOnUse" x1="-209.369" y1="-272.081" x2="277.096" y2="570.501" gradientTransform="translate(1258.441 532.89)"><stop offset="0" stop-color="#ffbc04"/><stop offset=".26" stop-color="#ffa202" stop-opacity=".489"/><stop offset=".508" stop-color="#ff8e00" stop-opacity="0"/></linearGradient><linearGradient id="l" gradientUnits="userSpaceOnUse" x1="1321.766" y1="246.002" x2="477.681" y2="1708"><stop offset="0" stop-color="#fff44f" stop-opacity=".8"/><stop offset=".75" stop-color="#fff44f" stop-opacity="0"/></linearGradient><linearGradient id="m" gradientUnits="userSpaceOnUse" x1="-205.411" y1="605.314" x2="-205.411" y2="-421.979" gradientTransform="translate(1258.441 532.89)"><stop offset="0" stop-color="#3a8ee6"/><stop offset=".236" stop-color="#5c79f0"/><stop offset=".629" stop-color="#9059ff"/><stop offset="1" stop-color="#c139e6"/></linearGradient><linearGradient id="n" gradientUnits="userSpaceOnUse" x1="-583.449" y1="-426.689" x2="250.12" y2="406.881" gradientTransform="translate(1258.441 532.89)"><stop offset=".805" stop-color="#9059ff" stop-opacity="0"/><stop offset="1" stop-color="#6e008b" stop-opacity=".5"/></linearGradient></defs><path d="M1588.948 424.27c-149.47-196.376-382.501-318.762-627.59-323.642-191.995-3.822-324.654 53.737-399.711 100.01 100.422-58.1 245.725-91.054 372.95-89.432 327.29 4.17 678.776 226.497 730.982 627.28 59.927 460.065-261.254 844.04-713.114 845.2-497.107 1.274-799.451-437.844-720.43-832.257 3.945-19.696 1.976-38.852 8.554-57.467 3.766-69.35 30.026-178.053 86.674-289.124-57.237 29.543-130.13 123.016-166.12 209.6-51.885 124.82-70.17 274.09-53.71 416.106 1.239 10.69 2.361 21.35 3.763 31.948 66.58 390.594 406.647 687.955 816.214 687.955 457.335 0 828.078-370.743 828.078-828.075 0-186.993-62.005-359.486-166.54-498.103zM278.297 496.18l-.003.003z" fill="url(#a)" transform="matrix(.26458 0 0 .26458 -26.873 -26.577)"/><path d="M1588.948 424.27c-149.47-196.376-382.501-318.762-627.59-323.642-191.995-3.822-324.654 53.737-399.711 100.01 100.422-58.1 245.725-91.054 372.95-89.432 327.29 4.17 678.776 226.497 730.982 627.28 59.927 460.065-261.254 844.04-713.114 845.2-497.107 1.274-799.451-437.844-720.43-832.257 3.945-19.696 1.976-38.852 8.554-57.467 3.766-69.35 30.026-178.053 86.674-289.124-57.237 29.543-130.13 123.016-166.12 209.6-51.885 124.82-70.17 274.09-53.71 416.106 1.239 10.69 2.361 21.35 3.763 31.948 66.58 390.594 406.647 687.955 816.214 687.955 457.335 0 828.078-370.743 828.078-828.075 0-186.993-62.005-359.486-166.54-498.103zM278.297 496.18l-.003.003z" fill="url(#b)" transform="matrix(.26458 0 0 .26458 -26.873 -26.577)" opacity=".67"/><path d="M1588.948 424.27c-149.47-196.376-382.501-318.762-627.59-323.642-191.995-3.822-324.654 53.737-399.711 100.01 100.422-58.1 245.725-91.054 372.95-89.432 327.29 4.17 678.776 226.497 730.982 627.28 59.927 460.065-261.254 844.04-713.114 845.2-497.107 1.274-799.451-437.844-720.43-832.257 3.945-19.696 1.976-38.852 8.554-57.467 3.766-69.35 30.026-178.053 86.674-289.124-57.237 29.543-130.13 123.016-166.12 209.6-51.885 124.82-70.17 274.09-53.71 416.106 1.239 10.69 2.361 21.35 3.763 31.948 66.58 390.594 406.647 687.955 816.214 687.955 457.335 0 828.078-370.743 828.078-828.075 0-186.993-62.005-359.486-166.54-498.103zM278.297 496.18l-.003.003z" fill="url(#c)" transform="matrix(.26458 0 0 .26458 -26.873 -26.577)"/><path d="M1588.948 424.27c-149.47-196.376-382.501-318.762-627.59-323.642-191.995-3.822-324.654 53.737-399.711 100.01 100.422-58.1 245.725-91.054 372.95-89.432 327.29 4.17 678.776 226.497 730.982 627.28 59.927 460.065-261.254 844.04-713.114 845.2-497.107 1.274-799.451-437.844-720.43-832.257 3.945-19.696 1.976-38.852 8.554-57.467 3.766-69.35 30.026-178.053 86.674-289.124-57.237 29.543-130.13 123.016-166.12 209.6-51.885 124.82-70.17 274.09-53.71 416.106 1.239 10.69 2.361 21.35 3.763 31.948 66.58 390.594 406.647 687.955 816.214 687.955 457.335 0 828.078-370.743 828.078-828.075 0-186.993-62.005-359.486-166.54-498.103zM278.297 496.18l-.003.003z" fill="url(#d)" transform="matrix(.26458 0 0 .26458 -26.873 -26.577)"/><path d="M1588.948 424.27c-149.47-196.376-382.501-318.762-627.59-323.642-191.995-3.822-324.654 53.737-399.711 100.01 100.422-58.1 245.725-91.054 372.95-89.432 327.29 4.17 678.776 226.497 730.982 627.28 59.927 460.065-261.254 844.04-713.114 845.2-497.107 1.274-799.451-437.844-720.43-832.257 3.945-19.696 1.976-38.852 8.554-57.467 3.766-69.35 30.026-178.053 86.674-289.124-57.237 29.543-130.13 123.016-166.12 209.6-51.885 124.82-70.17 274.09-53.71 416.106 1.239 10.69 2.361 21.35 3.763 31.948 66.58 390.594 406.647 687.955 816.214 687.955 457.335 0 828.078-370.743 828.078-828.075 0-186.993-62.005-359.486-166.54-498.103zM278.297 496.18l-.003.003z" fill="url(#e)" transform="matrix(.26458 0 0 .26458 -26.873 -26.577)"/><path d="M1665.579 738.487c6.617 50.803 8.569 100.761 6.23 149.455 27.42-4.059 54.89-7.737 82.415-10.922-9.154-169.486-69.25-325.417-165.276-452.75-149.47-196.376-382.501-318.762-627.59-323.642-191.995-3.822-324.654 53.737-399.711 100.01 100.422-58.1 245.725-91.054 372.95-89.432 327.29 4.17 678.776 226.497 730.982 627.28z" fill="url(#f)" transform="matrix(.26458 0 0 .26458 -26.873 -26.577)"/><path d="M1685.708 715.606c-46.538-418.846-420.96-607.115-751.11-604.4-127.232 1.046-272.53 31.332-372.951 89.432-46.91 28.92-71.314 53.414-73.59 55.753 2.66-2.204 10.616-8.738 23.812-17.773.432-.302.868-.598 1.301-.898.375-.255.767-.516 1.15-.774 47.87-33.006 101.898-56.978 159.03-73.68 87.252-25.508 181.722-34.069 272.551-31.792 373.387 21.481 636.884 330.657 646.057 659.757 7.592 272.375-215.882 489.593-473.48 502.174-187.345 9.15-363.818-81.29-450.066-262.22-19.187-40.25-33.259-81.16-40.598-130.616-40.86-275.346 144.485-510.158 314.45-568.29-91.705-79.906-321.446-74.486-492.44 51.011-123.143 90.378-203.026 227.887-229.492 391.94-20.178 125.078-1.174 255.15 48.38 371.32 50.491 118.37 132.607 222.726 235.844 299.568 112.104 83.443 247.096 131.997 386.233 142.573a813.83 813.83 0 0061.676 2.322c547.09 0 784.478-414.293 733.243-875.407z" fill="url(#g)" transform="matrix(.26458 0 0 .26458 -26.873 -26.577)"/><path d="M1685.708 715.606c-46.538-418.846-420.96-607.115-751.11-604.4-127.232 1.046-272.53 31.332-372.951 89.432-46.91 28.92-71.314 53.414-73.59 55.753 2.66-2.204 10.616-8.738 23.812-17.773.432-.302.868-.598 1.301-.898.375-.255.767-.516 1.15-.774 47.87-33.006 101.898-56.978 159.03-73.68 87.252-25.508 181.722-34.069 272.551-31.792 373.387 21.481 636.884 330.657 646.057 659.757 7.592 272.375-215.882 489.593-473.48 502.174-187.345 9.15-363.818-81.29-450.066-262.22-19.187-40.25-33.259-81.16-40.598-130.616-40.86-275.346 144.485-510.158 314.45-568.29-91.705-79.906-321.446-74.486-492.44 51.011-123.143 90.378-203.026 227.887-229.492 391.94-20.178 125.078-1.174 255.15 48.38 371.32 50.491 118.37 132.607 222.726 235.844 299.568 112.104 83.443 247.096 131.997 386.233 142.573a813.83 813.83 0 0061.676 2.322c547.09 0 784.478-414.293 733.243-875.407z" fill="url(#h)" transform="matrix(.26458 0 0 .26458 -26.873 -26.577)"/><path d="M1685.708 715.606c-46.538-418.846-420.96-607.115-751.11-604.4-127.232 1.046-272.53 31.332-372.951 89.432-46.91 28.92-71.314 53.414-73.59 55.753 2.66-2.204 10.616-8.738 23.812-17.773.432-.302.868-.598 1.301-.898.375-.255.767-.516 1.15-.774 47.87-33.006 101.898-56.978 159.03-73.68 87.252-25.508 181.722-34.069 272.551-31.792 373.387 21.481 636.884 330.657 646.057 659.757 7.592 272.375-215.882 489.593-473.48 502.174-187.345 9.15-363.818-81.29-450.066-262.22-19.187-40.25-33.259-81.16-40.598-130.616-40.86-275.346 144.485-510.158 314.45-568.29-91.705-79.906-321.446-74.486-492.44 51.011-123.143 90.378-203.026 227.887-229.492 391.94-20.178 125.078-1.174 255.15 48.38 371.32 50.491 118.37 132.607 222.726 235.844 299.568 112.104 83.443 247.096 131.997 386.233 142.573a813.83 813.83 0 0061.676 2.322c547.09 0 784.478-414.293 733.243-875.407z" opacity=".53" fill="url(#i)" transform="matrix(.26458 0 0 .26458 -26.873 -26.577)"/><path d="M1685.708 715.606c-46.538-418.846-420.96-607.115-751.11-604.4-127.232 1.046-272.53 31.332-372.951 89.432-46.91 28.92-71.314 53.414-73.59 55.753 2.66-2.204 10.616-8.738 23.812-17.773.432-.302.868-.598 1.301-.898.375-.255.767-.516 1.15-.774 47.87-33.006 101.898-56.978 159.03-73.68 87.252-25.508 181.722-34.069 272.551-31.792 373.387 21.481 636.884 330.657 646.057 659.757 7.592 272.375-215.882 489.593-473.48 502.174-187.345 9.15-363.818-81.29-450.066-262.22-19.187-40.25-33.259-81.16-40.598-130.616-40.86-275.346 144.485-510.158 314.45-568.29-91.705-79.906-321.446-74.486-492.44 51.011-123.143 90.378-203.026 227.887-229.492 391.94-20.178 125.078-1.174 255.15 48.38 371.32 50.491 118.37 132.607 222.726 235.844 299.568 112.104 83.443 247.096 131.997 386.233 142.573a813.83 813.83 0 0061.676 2.322c547.09 0 784.478-414.293 733.243-875.407z" opacity=".53" fill="url(#j)" transform="matrix(.26458 0 0 .26458 -26.873 -26.577)"/><g><path d="M1118.477 1293.405c353.578-21.453 504.864-313.42 514.347-520.683C1647.63 449.068 1455.132 100.03 945.9 131.474c-90.829-2.277-185.299 6.284-272.552 31.792-76.487 23.335-129.611 53.843-159.029 73.68-.38.262-.77.51-1.15.774-.457.31-.856.593-1.301.898a451.894 451.894 0 00-23.223 17.368c14.158-9.663 189.77-113.126 433.755-81.182 292.291 38.27 559.62 265.181 559.62 564.575 0 230.354-178.45 406.216-387.386 393.661-310.427-18.652-388.596-336.213-227.189-473.423-43.543-9.356-125.376 8.965-182.35 93.946-51.12 76.252-48.235 194.077-16.684 277.623 86.248 180.929 262.842 273.578 450.065 262.219z" fill="url(#k)" transform="matrix(.26458 0 0 .26458 -26.873 -26.577)"/></g><g><path d="M1588.945 424.27c-22.163-29.125-46.37-56.404-71.983-82.13-20.544-21.75-42.56-41.79-65.683-60.349 13.322 11.65 26.147 23.877 38.217 36.907 44.78 48.34 80.245 105.447 100.928 167.966 43.191 130.547 40.371 293.914-42.085 422.227-98.262 152.904-258.23 228.384-431.155 224.707-7.478.033-14.985-.102-22.55-.557C784.21 1114.387 706.038 796.827 867.45 659.62c-43.55-9.357-125.376 8.964-182.35 93.944-51.124 76.252-48.238 194.077-16.685 277.62-19.19-40.246-33.26-81.16-40.598-130.612-40.862-275.347 144.485-510.161 314.45-568.294-91.706-79.903-321.445-74.483-492.444 51.013-99.638 73.129-170.925 177.133-208.542 301.07 5.53-69.54 31.86-173.405 85.979-279.522-57.231 29.542-130.13 123.018-166.113 209.597-51.885 124.823-70.174 274.095-53.716 416.111 1.245 10.686 2.366 21.347 3.764 31.948 66.578 390.592 406.649 687.954 816.219 687.954 457.332 0 828.076-370.745 828.076-828.077 0-186.99-62.007-359.483-166.545-498.102z" fill="url(#l)" transform="matrix(.26458 0 0 .26458 -26.873 -26.577)"/></g><path d="M1590.422 486.665c-20.685-62.522-56.148-119.63-100.928-167.965-52.76-56.947-118.462-100.22-188.015-133.92-59.174-28.67-120.97-51.297-184.834-65.358-114.389-25.184-234.402-24.738-342.469-1.993-117.486 24.727-220.803 75.45-286.143 138.862 48.993-29.7 117.335-53.788 166.031-66.063 225.98-56.962 474.815 4.735 644.47 167.051 34.11 32.634 64.695 69.15 89.494 109.37 101.21 164.151 91.634 370.517 12.726 492.227-58.62 90.417-184.15 175.238-301.273 174.317 179.683 9.406 347.246-66.181 448.857-224.3 82.458-128.315 85.274-291.682 42.084-422.228z" fill="url(#m)" transform="matrix(.26458 0 0 .26458 -26.873 -26.577)"/><path d="M1590.422 486.665c-20.685-62.522-56.148-119.63-100.928-167.965-52.76-56.947-118.462-100.22-188.015-133.92-59.174-28.67-120.97-51.297-184.834-65.358-114.389-25.184-234.402-24.738-342.469-1.993-117.486 24.727-220.803 75.45-286.143 138.862 48.993-29.7 117.335-53.788 166.031-66.063 225.98-56.962 474.815 4.735 644.47 167.051 34.11 32.634 64.695 69.15 89.494 109.37 101.21 164.151 91.634 370.517 12.726 492.227-58.62 90.417-184.15 175.238-301.273 174.317 179.683 9.406 347.246-66.181 448.857-224.3 82.458-128.315 85.274-291.682 42.084-422.228z" fill="url(#n)" transform="matrix(.26458 0 0 .26458 -26.873 -26.577)"/></svg>