<svg xmlns="http://www.w3.org/2000/svg" viewBox="0 0 20 18">
    <path fill="#181717" fill-rule="evenodd" d="M9 0C4.03 0 0 4.131 0 9.229c0 4.076 2.578 7.534 6.155 8.755.45.085.615-.2.615-.445 0-.219-.008-.8-.013-1.57-2.503.558-3.031-1.236-3.031-1.236-.41-1.067-1-1.35-1-1.35-.817-.572.062-.561.062-.561.904.066 1.379.951 1.379.951.803 1.41 2.106 1.003 2.62.767.081-.597.313-1.003.57-1.234-1.998-.233-4.099-1.025-4.099-4.56 0-1.008.35-1.831.927-2.477-.093-.233-.402-1.171.087-2.442 0 0 .756-.248 2.476.946A8.42 8.42 0 0 1 9 4.463a8.433 8.433 0 0 1 2.253.31c1.718-1.194 2.472-.946 2.472-.946.491 1.27.182 2.209.09 2.442.576.646.925 1.47.925 2.476 0 3.545-2.105 4.326-4.11 4.554.324.285.612.848.612 1.709 0 1.233-.012 2.228-.012 2.531 0 .247.162.534.62.444C15.422 16.76 18 13.303 18 9.23 18 4.13 13.97 0 9 0"/>
</svg>
