<svg width="32" height="32" viewBox="0 0 32 32" fill="none" xmlns="http://www.w3.org/2000/svg">
<rect x="0.769226" y="0.769226" width="30.4615" height="30.4615" fill="black"/>
<path d="M27.7314 20.5084H29.6441V23.6154H23.6121V15.2745C23.6121 12.6567 22.7781 11.6728 21.1592 11.6728C19.1972 11.6728 18.4124 13.1609 18.4124 15.2139V20.4496H20.3251V23.5604H14.3008V15.2689C14.3008 12.651 13.4667 11.6671 11.8478 11.6671C9.88583 11.6671 8.78825 13.1552 8.78825 15.2082V20.4439H11.8364V23.5604H3.01414V20.4534H4.82258V12.3572H2.92694V8.65498H8.3769V10.9942C9.50119 9.32444 11.3993 8.34322 13.4117 8.39149C15.5214 8.27647 17.4399 9.60854 18.0693 11.6254C18.7467 9.64346 20.635 8.33287 22.7288 8.39149C24.1019 8.32879 25.4351 8.86326 26.3846 9.85716C27.3342 10.8511 27.8073 12.2072 27.6821 13.5761V20.5084H27.7314Z" fill="white"/>
</svg>
