<svg xmlns="http://www.w3.org/2000/svg" viewBox="0 0 20 18" xmlns:xlink="http://www.w3.org/1999/xlink"><defs><path d="M12.635 6.332l.778.779-5.798 5.84a.538.538 0 0 1-.389.174.538.538 0 0 1-.39-.173l-2.423-2.423.78-.779 2.033 2.034 5.409-5.452zM2.639 3.389C4.4 1.63 6.52.75 9 .75c2.48 0 4.601.88 6.36 2.64C17.12 5.148 18 7.27 18 9.75c0 2.48-.88 4.601-2.64 6.36-1.759 1.76-3.88 2.64-6.36 2.64-2.48 0-4.601-.88-6.36-2.64C.88 14.352 0 12.23 0 9.75c0-2.48.88-4.601 2.64-6.36zm.52 12.202C4.774 17.207 6.72 18.014 9 18.014c2.279 0 4.226-.807 5.841-2.423 1.616-1.615 2.423-3.562 2.423-5.841 0-2.279-.807-4.226-2.423-5.841C13.226 2.293 11.28 1.486 9 1.486c-2.279 0-4.226.807-5.841 2.423C1.543 5.524.736 7.47.736 9.75c0 2.279.807 4.226 2.423 5.841z" id="a"/></defs><use fill="#158640" xlink:href="#a" fill-rule="evenodd"/></svg>
